<svg xmlns="http://www.w3.org/2000/svg" viewBox="0 0 128 128" width="128" height="128">
  <circle cx="64" cy="64" r="64" fill="#26A17B"/>
  <path d="M74.6 99.2c-4.1 2.3-9.3 3.6-15.7 3.6-12.4 0-21.7-7.7-21.7-22.1 0-13.6 9.3-22.6 21.7-22.6 6 0 10.8 1.5 14.7 3.5V41.4c-4.8-1.8-9.2-2.8-15.2-2.8-18.4 0-33.3 13.9-33.3 32.6 0 18.5 14.8 32.3 33.3 32.3 5.7 0 10.9-1.1 15.8-2.9l.4-.2v-14.8l-.1-.1zm-2.6-40.8c-2.6-1.9-6.4-2.9-11.4-2.9-9.1 0-15.5 5.7-15.5 15.4 0 9.9 6.4 15.1 15.5 15.1 5.2 0 8.8-1.2 11.4-2.9v-24.7z" fill="#FFF"/>
</svg>